<svg width="1024" height="1024" xmlns="http://www.w3.org/2000/svg" p-id="3432" version="1.1" class="icon" t="1675067632344">

 <g>
  <title>Layer 1</title>
  <path stroke="null" id="svg_1" p-id="3433" fill="#1296db" d="m1026.99999,-2.99997l-1026.99999,0l0,1030.99991l1026.99999,0l0,-1030.99991zm-941.41665,93.72726l855.83332,0l0,620.47449l-168.38521,-222.13362l-210.10708,230.10043l-263.38271,-431.84837l-213.95833,351.47724l0,-548.07018zm0,843.54538l0,-126.29749l213.95833,-351.47724l250.11729,410.75974l217.80958,-237.59862l173.94812,227.75725l0,76.85636l-855.83332,0z"/>
  <path id="svg_2" p-id="3434" fill="#1296db" d="m777,420a96,96 0 1 0 -96,-96a96,96 0 0 0 96,96zm0,-128a32,32 0 1 1 -32,32a32,32 0 0 1 32,-32z"/>
  <line id="svg_3" y2="367" x2="541" y1="316" x1="290" fill="none"/>
  <line id="svg_4" y2="345" x2="584" y1="267" x1="360" fill="none"/>
 </g>
</svg>